<?xml version="1.0" encoding="iso-8859-1"?>
<!-- Uploaded to: SVG Repo, www.svgrepo.com, Generator: SVG Repo Mixer Tools -->
<svg height="800px" width="800px" version="1.1" id="Layer_1" xmlns="http://www.w3.org/2000/svg" xmlns:xlink="http://www.w3.org/1999/xlink" 
	 viewBox="0 0 392.533 392.533" xml:space="preserve">
<path style="fill:#FFC10D;" d="M185.341,215.77c0-12.671,7.887-24.113,19.846-28.186c1.164-0.388,2.392-0.905,3.62-1.293
	c-0.84-0.323-1.616-0.646-2.521-0.84c-12.671-3.491-26.117-6.206-40.016-8.016l-32.129,65.616c-4.008,8.145-15.58,8.145-19.523,0
	l-32.129-65.616c-13.899,1.875-27.345,4.59-40.016,8.016c-11.83,3.232-20.105,13.705-20.493,25.6h36.137
	c6.012,0,10.925,4.848,10.925,10.925c0,6.012-4.848,10.925-10.925,10.925H21.786v19.394h16.873c6.012,0,10.925,4.848,10.925,10.925
	c0,6.012-4.848,10.925-10.925,10.925H21.786v17.067h175.903c-8.016-21.85-12.283-45.188-12.283-69.107L185.341,215.77
	L185.341,215.77z"/>
<path style="fill:#FFFFFF;" d="M370.747,222.234v-4.59c0-4.59-2.78-8.727-7.111-10.214c-29.608-10.279-54.303-28.962-68.719-41.632
	c-3.232-2.844-8.016-2.844-11.313,0c-14.61,12.606-39.628,31.354-69.301,41.632c-4.331,1.487-7.111,5.624-7.111,10.214v4.073
	c0,58.699,28.638,113.649,76.735,147.329l0.129,0.065c3.168,2.263,7.434,2.263,10.602,0
	C342.303,335.43,370.747,280.61,370.747,222.234z"/>
<g>
	<path style="fill:#56ACE0;" d="M289.228,184.675c-16.097,12.735-38.271,27.733-63.935,37.947c1.099,50.101,24.63,97.228,64,128.129
		c39.046-30.966,62.449-78.093,63.289-128.129C326.982,212.408,305.067,197.475,289.228,184.675z"/>
	<path style="fill:#56ACE0;" d="M124.315,21.766c-24.048,0-43.636,19.523-43.636,43.636c0,24.048,19.523,43.636,43.636,43.636
		c24.048,0,43.636-19.523,43.636-43.636C168.016,41.418,148.428,21.766,124.315,21.766z"/>
</g>
<g>
	<path style="fill:#194F82;" d="M373.075,188.101c-20.17-7.046-43.184-23.725-59.992-37.56
		c-13.511-11.119-33.099-11.119-46.416,0.259c-11.572,9.826-23.208,18.036-34.586,24.501c-5.624-5.107-12.412-8.792-19.911-10.925
		c-16.162-4.396-33.228-7.628-51.006-9.632c-4.59-0.517-8.986,1.939-10.99,6.012l-25.794,52.622l-25.794-52.622
		c-2.004-4.073-6.4-6.594-10.99-6.012c-17.778,1.939-34.909,5.172-50.941,9.632C15.127,170.194,0,189.782,0,211.891v90.053
		c0,6.012,4.848,10.925,10.925,10.925h196.202c14.739,29.026,36.461,54.626,64,73.891l0.129,0.065
		c10.925,7.564,25.341,7.564,36.137-0.065c53.398-37.624,85.139-98.909,85.139-164.267v-6.271
		C392.533,203.681,384.905,192.238,373.075,188.101z M205.123,187.584c-11.96,4.073-19.846,15.515-19.846,28.186v6.206
		c0,23.855,4.331,47.192,12.283,69.107H21.786v-17.067h16.873c6.012,0,10.925-4.848,10.925-10.925
		c0-6.012-4.848-10.925-10.925-10.925H21.786v-19.394h36.331c6.012,0,10.925-4.848,10.925-10.925
		c0-6.012-4.848-10.925-10.925-10.925H21.85c0.453-11.895,8.663-22.432,20.493-25.6c12.671-3.491,26.117-6.206,40.016-8.016
		l32.129,65.616c4.008,8.145,15.58,8.145,19.523,0l32.129-65.616c13.899,1.875,27.281,4.59,40.016,8.016
		c0.84,0.259,1.681,0.517,2.521,0.84C207.644,186.743,206.416,187.196,205.123,187.584z M370.683,222.234
		c0,58.44-28.38,113.261-76.089,146.941c-3.168,2.133-7.37,2.133-10.537,0l-0.129-0.065c-48.032-33.681-76.735-88.63-76.735-147.329
		v-4.073c0-4.59,2.78-8.727,7.111-10.214c29.737-10.279,54.756-29.026,69.301-41.632c3.232-2.78,8.016-2.78,11.313,0
		c14.352,12.606,39.111,31.354,68.719,41.632c4.331,1.487,7.111,5.624,7.111,10.214v4.525H370.683z"/>
	<path style="fill:#194F82;" d="M288.905,232.642c6.659,0,12.024,5.43,12.024,12.024c0,6.012,4.848,10.925,10.925,10.925
		c6.012,0,10.925-4.848,10.925-10.925c0-14.869-9.568-27.41-22.949-32v-5.042c0-6.012-4.848-10.925-10.925-10.925
		c-6.012,0-10.925,4.848-10.925,10.925v5.042c-13.317,4.59-22.95,17.131-22.95,32c0,18.618,15.127,33.875,33.875,33.875
		c6.659,0,12.024,5.43,12.024,12.024c0,6.659-5.43,12.024-12.024,12.024c-6.659,0-12.024-5.43-12.024-12.024
		c0-6.012-4.848-10.925-10.925-10.925c-6.077,0-10.925,4.848-10.925,10.925c0,14.869,9.568,27.41,22.95,32v5.042
		c0,6.012,4.848,10.925,10.925,10.925c6.012,0,10.925-4.848,10.925-10.925v-5.042c13.317-4.59,22.949-17.131,22.949-32
		c0-18.618-15.127-33.875-33.875-33.875c-6.659,0-12.024-5.43-12.024-12.024C276.881,238.073,282.246,232.642,288.905,232.642z"/>
	<path style="fill:#194F82;" d="M124.315,130.889c36.073,0,65.422-29.349,65.422-65.422S160.388,0.044,124.315,0.044
		S58.893,29.394,58.893,65.467S88.242,130.889,124.315,130.889z M124.315,21.766c24.048,0,43.636,19.523,43.636,43.636
		c0,24.048-19.523,43.636-43.636,43.636c-24.048,0-43.636-19.523-43.636-43.636C80.679,41.418,100.202,21.766,124.315,21.766z"/>
</g>
</svg>